<svg id="Layer_1" data-name="Layer 1" xmlns="http://www.w3.org/2000/svg" viewBox="0 0 495.45 161.57"><defs><style>.cls-1{fill:#f59c1a;}.cls-2{fill:#272828;}</style></defs><title>svg</title><path class="cls-1" d="M424,300.3c-13,0-18.87-8.23-18.87-17.58,0-10.43,7-17.93,19.23-17.93,11.35,0,18,6.58,18,17.39C442.28,293.9,435.31,300.3,424,300.3Z" transform="translate(-88.14 -180.14)"/><path class="cls-1" d="M424.32,264.79c-12.26,0-19.23,7.5-19.23,17.93,0,9.35,5.86,17.58,18.87,17.58,11.35,0,18.32-6.4,18.32-18.12C442.28,271.37,435.67,264.79,424.32,264.79Zm0,0c-12.26,0-19.23,7.5-19.23,17.93,0,9.35,5.86,17.58,18.87,17.58,11.35,0,18.32-6.4,18.32-18.12C442.28,271.37,435.67,264.79,424.32,264.79Z" transform="translate(-88.14 -180.14)"/><path class="cls-1" d="M570.62,325.21H539.86V297.38h-58V274.85l38.09-78.18h31.85l-35.7,75.26h24l-.18-27.1h30.76v27.1h13V196a15.81,15.81,0,0,0-15.81-15.81H394.91A15.81,15.81,0,0,0,379.1,196v28.88c9.67-18.57,27.18-29.44,49.81-29.44,14.27,0,30.2,4,40.83,10.63l-12.26,23a45.35,45.35,0,0,0-26.56-8.23c-20,0-29.66,12.82-29.29,33.7,6-8.62,15.92-13.75,29.84-13.75,24.9,0,41,16.49,41,41.57,0,27.1-19,44.31-47.24,44.31-21.19,0-37.13-9.42-46.14-26V325.9a15.81,15.81,0,0,0,15.81,15.81H567.79A15.81,15.81,0,0,0,583.6,325.9V297.38h-13Z" transform="translate(-88.14 -180.14)"/><path class="cls-2" d="M115,190.85V331.22H88.14V190.85Z" transform="translate(-88.14 -180.14)"/><path class="cls-2" d="M281.06,223.93l28.07,81.62,27.47-81.62h26.27L322,331.22H295.09L253.78,224.13Z" transform="translate(-88.14 -180.14)"/><path class="cls-2" d="M191,190.85H167.11V214.3h22.5c20.06,0,31.49,8.44,31.49,25.67,0,17.65-11.43,26.28-31.49,26.28H160.33V238.09H133.47v93.12h26.86V289.9H191c35.28,0,55.54-18.64,55.54-50.73C246.56,208.29,226.3,190.85,191,190.85Z" transform="translate(-88.14 -180.14)"/><rect class="cls-1" x="45.33" y="10.71" width="26.93" height="23.45"/></svg>